<svg xmlns="http://www.w3.org/2000/svg" xmlns:xlink="http://www.w3.org/1999/xlink" width="1080" zoomAndPan="magnify" viewBox="0 0 810 149.999998" height="200" preserveAspectRatio="xMidYMid meet" version="1.0"><defs><clipPath id="3b293885ac"><path d="M 108 48 L 147.777344 48 L 147.777344 96.582031 L 108 96.582031 Z M 108 48 " clip-rule="nonzero"/></clipPath><clipPath id="14eff8908b"><path d="M 146.804688 48.015625 L 147.773438 60.832031 L 147.636719 60.832031 C 146.597656 53.070312 142.9375 48.707031 131.113281 48.707031 L 129.941406 48.707031 L 129.941406 92.476562 C 129.941406 94.144531 131.535156 95.800781 136.851562 96.148438 L 136.851562 96.496094 L 118.945312 96.496094 L 118.945312 96.148438 C 124.265625 95.800781 125.859375 94.136719 125.859375 92.476562 L 125.859375 48.707031 L 124.683594 48.707031 C 112.863281 48.707031 109.203125 53.070312 108.164062 60.832031 L 108.027344 60.832031 L 108.992188 48.015625 Z M 146.804688 48.015625 " clip-rule="nonzero"/></clipPath><clipPath id="a6a89f8d76"><path d="M 149.8125 48 L 195.699219 48 L 195.699219 96.582031 L 149.8125 96.582031 Z M 149.8125 48 " clip-rule="nonzero"/></clipPath><clipPath id="32f89e9472"><path d="M 184.546875 74.054688 C 184.546875 66.09375 180.75 61.449219 174.246094 61.449219 C 166.367188 61.449219 160.839844 68.378906 160.839844 76.203125 L 160.839844 92.476562 C 160.839844 94.144531 162.425781 95.800781 167.753906 96.148438 L 167.753906 96.496094 L 149.847656 96.496094 L 149.847656 96.148438 C 155.175781 95.800781 156.761719 94.136719 156.761719 92.476562 L 156.761719 52.03125 C 156.761719 50.367188 155.175781 48.707031 149.847656 48.363281 L 149.847656 48.015625 L 160.496094 48.015625 L 160.839844 48.433594 L 160.839844 71.421875 C 162.570312 63.871094 168.027344 59.238281 175.285156 59.238281 C 183.300781 59.238281 188.628906 64.984375 188.628906 73.507812 L 188.628906 92.476562 C 188.628906 94.144531 190.222656 95.800781 195.539062 96.148438 L 195.539062 96.496094 L 177.632812 96.496094 L 177.632812 96.148438 C 182.960938 95.800781 184.546875 94.136719 184.546875 92.476562 Z M 184.546875 74.054688 " clip-rule="nonzero"/></clipPath><clipPath id="975892f984"><path d="M 196.152344 59.058594 L 232.769531 59.058594 L 232.769531 96.808594 L 196.152344 96.808594 Z M 196.152344 59.058594 " clip-rule="nonzero"/></clipPath><clipPath id="a05eeadd8a"><path d="M 226.023438 72.46875 C 226.023438 67.132812 222.289062 59.863281 214.136719 59.863281 C 207.015625 59.863281 202.734375 66.101562 201.214844 72.46875 Z M 216.066406 94.699219 C 225.058594 94.699219 230.101562 88.535156 232.105469 82.515625 L 232.589844 82.722656 C 230.511719 89.300781 225.058594 96.785156 214.0625 96.785156 C 202.035156 96.785156 196.230469 87.851562 196.230469 78.296875 C 196.230469 66.941406 203.628906 59.183594 214.410156 59.183594 C 224.15625 59.183594 230.164062 65.484375 230.164062 72.269531 L 230.164062 73.171875 L 201.066406 73.171875 C 200.722656 74.691406 200.585938 76.222656 200.585938 77.667969 C 200.585938 86.257812 205.492188 94.710938 216.066406 94.710938 " clip-rule="nonzero"/></clipPath><clipPath id="d65a84114f"><path d="M 258 48 L 295.308594 48 L 295.308594 96.617188 L 258 96.617188 Z M 258 48 " clip-rule="nonzero"/></clipPath><clipPath id="14cba34c8f"><path d="M 269.089844 69.765625 L 269.089844 95.8125 L 279.734375 95.8125 C 291.902344 95.8125 294.042969 88.398438 295.082031 80.15625 L 295.292969 80.15625 L 294.246094 96.496094 L 258.097656 96.496094 L 258.097656 96.148438 C 263.414062 95.800781 265.007812 94.136719 265.007812 92.476562 L 265.007812 52.03125 C 265.007812 50.367188 263.425781 48.707031 258.097656 48.363281 L 258.097656 48.015625 L 294.246094 48.015625 L 295.210938 60.832031 L 295.074219 60.832031 C 294.042969 53.070312 290.375 48.707031 278.550781 48.707031 L 269.089844 48.707031 L 269.089844 69.074219 L 284.5 69.074219 C 286.15625 69.074219 287.816406 67.480469 288.160156 62.152344 L 288.507812 62.152344 L 288.507812 80.984375 L 288.160156 80.984375 C 287.816406 72.324219 286.15625 69.765625 284.5 69.765625 Z M 269.089844 69.765625 " clip-rule="nonzero"/></clipPath><clipPath id="43c168f0b8"><path d="M 296.476562 59.816406 L 339.117188 59.816406 L 339.117188 113.847656 L 296.476562 113.847656 Z M 296.476562 59.816406 " clip-rule="nonzero"/></clipPath><clipPath id="be0c6d6ce3"><path d="M 296.667969 98.023438 L 297.148438 98.023438 C 297.078125 105.15625 300.402344 110.910156 305.027344 110.910156 C 309.171875 110.910156 312.496094 106.265625 314.707031 101.839844 L 317.402344 96.367188 L 304 66.09375 C 302.550781 62.90625 300.957031 60.695312 296.667969 60.210938 L 296.667969 59.855469 L 314.570312 59.855469 L 314.570312 60.203125 C 307.175781 60.203125 306.695312 62.003906 308.488281 66.085938 L 319.542969 91.304688 L 330.820312 65.957031 C 332.203125 62.84375 331.996094 60.347656 323.488281 60.210938 L 323.488281 59.855469 L 339.105469 59.855469 L 339.105469 60.203125 C 334.472656 60.621094 333.097656 62.550781 331.503906 66.085938 L 318.097656 96.496094 L 315.402344 102.242188 C 312.777344 107.777344 308.003906 113.671875 302.132812 113.671875 C 300.609375 113.671875 298.125 113.253906 296.667969 112.285156 Z M 296.667969 98.023438 " clip-rule="nonzero"/></clipPath><clipPath id="44fc31cc8e"><path d="M 335.609375 59 L 372.117188 59 L 372.117188 96.910156 L 335.609375 96.910156 Z M 335.609375 59 " clip-rule="nonzero"/></clipPath><clipPath id="0e63ff6195"><path d="M 365.445312 72.460938 C 365.445312 67.125 361.710938 59.855469 353.558594 59.855469 C 346.4375 59.855469 342.15625 66.09375 340.636719 72.460938 Z M 355.492188 94.699219 C 364.480469 94.699219 369.527344 88.535156 371.527344 82.515625 L 372.011719 82.722656 C 369.933594 89.300781 364.480469 96.785156 353.488281 96.785156 C 341.457031 96.785156 335.65625 87.851562 335.65625 78.296875 C 335.65625 66.941406 343.050781 59.183594 353.832031 59.183594 C 363.578125 59.183594 369.589844 65.484375 369.589844 72.269531 L 369.589844 73.171875 L 340.492188 73.171875 C 340.144531 74.691406 340.007812 76.222656 340.007812 77.667969 C 340.007812 86.257812 344.917969 94.710938 355.492188 94.710938 " clip-rule="nonzero"/></clipPath><clipPath id="95a465b2e4"><path d="M 369.78125 59.816406 L 431.40625 59.816406 L 431.40625 96.617188 L 369.78125 96.617188 Z M 369.78125 59.816406 " clip-rule="nonzero"/></clipPath><clipPath id="c18967fa39"><path d="M 388.679688 96.496094 L 377.476562 66.085938 C 376.300781 62.832031 374.226562 60.683594 369.945312 60.203125 L 369.945312 59.855469 L 387.847656 59.855469 L 387.847656 60.203125 C 380.453125 60.203125 380.527344 61.867188 381.976562 66.085938 L 390.617188 90.738281 L 402.085938 59.855469 L 402.839844 59.855469 L 413.695312 90.746094 L 422.886719 65.957031 C 424.058594 62.769531 424.195312 60.347656 415.699219 60.210938 L 415.699219 59.855469 L 431.320312 59.855469 L 431.320312 60.203125 C 426.691406 60.621094 424.960938 62.414062 423.578125 66.085938 L 412.382812 96.496094 L 411.765625 96.496094 L 400.5625 66.023438 L 389.296875 96.496094 Z M 388.679688 96.496094 " clip-rule="nonzero"/></clipPath><clipPath id="c8911bcd89"><path d="M 427.609375 59 L 464.40625 59 L 464.40625 96.910156 L 427.609375 96.910156 Z M 427.609375 59 " clip-rule="nonzero"/></clipPath><clipPath id="81986b7f85"><path d="M 457.65625 72.460938 C 457.65625 67.125 453.921875 59.855469 445.773438 59.855469 C 438.648438 59.855469 434.371094 66.09375 432.847656 72.460938 Z M 447.710938 94.699219 C 456.699219 94.699219 461.746094 88.535156 463.75 82.515625 L 464.234375 82.722656 C 462.15625 89.300781 456.699219 96.785156 445.707031 96.785156 C 433.675781 96.785156 427.875 87.851562 427.875 78.296875 C 427.875 66.941406 435.269531 59.183594 446.054688 59.183594 C 455.800781 59.183594 461.808594 65.484375 461.808594 72.269531 L 461.808594 73.171875 L 432.710938 73.171875 C 432.367188 74.691406 432.230469 76.222656 432.230469 77.667969 C 432.230469 86.257812 437.136719 94.710938 447.710938 94.710938 " clip-rule="nonzero"/></clipPath><clipPath id="9f7e804f55"><path d="M 467 59 L 505.292969 59 L 505.292969 97.492188 L 467 97.492188 Z M 467 59 " clip-rule="nonzero"/></clipPath><clipPath id="16eac7f295"><path d="M 496.71875 73.644531 L 487.9375 76.96875 C 478.539062 80.503906 470.863281 82.714844 470.863281 88.460938 C 470.863281 92.414062 474.386719 95.183594 479.503906 95.183594 C 486.972656 95.183594 493.8125 89.226562 496.71875 80.21875 Z M 470.171875 72.398438 L 470.171875 64.917969 C 472.65625 62.914062 478.605469 59.171875 486.070312 59.171875 C 494.433594 59.171875 500.863281 63.882812 500.863281 72.195312 L 500.863281 92.207031 C 500.863281 94.28125 502.246094 95.875 505.152344 96.15625 L 505.152344 96.503906 C 504.1875 96.578125 502.382812 97.332031 500.726562 97.332031 C 498.648438 97.332031 496.71875 96.222656 496.71875 91.304688 L 496.71875 82.234375 C 493.8125 91.03125 485.589844 97.195312 476.882812 97.195312 C 470.800781 97.195312 467 94.144531 467 89.226562 C 467 81.058594 477.71875 80.21875 487.949219 76.277344 L 496.726562 72.878906 L 496.726562 71.703125 C 496.726562 65.402344 493.277344 59.929688 485.945312 59.929688 C 478.339844 59.929688 471.773438 65.8125 470.1875 72.398438 " clip-rule="nonzero"/></clipPath><clipPath id="46f424aa3d"><path d="M 508.214844 59 L 535.960938 59 L 535.960938 96.617188 L 508.214844 96.617188 Z M 508.214844 59 " clip-rule="nonzero"/></clipPath><clipPath id="d866a3d2cc"><path d="M 531.34375 59.164062 C 534.039062 59.164062 535.699219 60.136719 535.90625 60.410156 L 535.214844 69.417969 L 534.871094 69.417969 C 534.3125 65.054688 531.554688 62.488281 528.304688 62.488281 C 523.394531 62.488281 519.449219 68.308594 519.449219 76.203125 L 519.449219 92.476562 C 519.449219 94.144531 521.035156 95.800781 526.363281 96.148438 L 526.363281 96.496094 L 508.46875 96.496094 L 508.46875 96.148438 C 513.792969 95.800781 515.378906 94.136719 515.378906 92.476562 L 515.378906 63.882812 C 515.378906 62.214844 513.792969 60.558594 508.46875 60.210938 L 508.46875 59.855469 L 519.113281 59.855469 L 519.460938 60.273438 L 519.460938 71.421875 C 519.460938 66.023438 524.230469 59.164062 531.34375 59.164062 " clip-rule="nonzero"/></clipPath><clipPath id="89da19a52b"><path d="M 11.285156 31.484375 L 85.257812 31.484375 L 85.257812 113.546875 L 11.285156 113.546875 Z M 11.285156 31.484375 " clip-rule="nonzero"/></clipPath><clipPath id="7ab73e7ab3"><path d="M 74.605469 88.714844 C 74.128906 90.710938 73.796875 92.75 73.445312 94.773438 C 73.347656 95.332031 73.140625 95.59375 72.5625 95.691406 L 65.386719 97.023438 C 63.449219 97.367188 60.640625 95.898438 59.84375 94.144531 L 59.765625 93.539062 C 59.761719 89.867188 59.765625 86.191406 59.765625 82.523438 L 59.808594 82.261719 C 63.785156 82.011719 67.625 81.984375 71.464844 82.046875 C 71.910156 82.058594 72.371094 82.570312 72.773438 82.902344 C 74.628906 84.441406 75.15625 86.375 74.605469 88.714844 M 66.886719 76.964844 C 68 76.53125 68.679688 75.699219 68.863281 74.527344 C 69.085938 73.128906 68.730469 71.871094 67.609375 70.945312 C 65.339844 69.066406 61.980469 69.914062 60.851562 72.621094 L 60.046875 74.632812 C 58.628906 77.992188 55.390625 79.445312 51.9375 78.277344 L 50.316406 77.722656 C 49.847656 78.375 49.425781 79.019531 48.945312 79.617188 C 48.492188 80.179688 47.953125 80.195312 47.492188 79.625 C 47.019531 79.050781 46.609375 78.433594 46.101562 77.738281 L 44.5 78.277344 C 41.023438 79.472656 37.71875 77.96875 36.347656 74.5625 L 35.410156 72.234375 C 34.78125 70.804688 32.886719 69.800781 31.171875 69.949219 C 29.421875 70.097656 27.96875 71.320312 27.570312 72.964844 C 27.171875 74.632812 27.957031 76.316406 29.429688 76.933594 C 30.714844 77.476562 32.035156 76.910156 32.496094 75.5625 L 31.714844 75.921875 C 30.746094 76.261719 29.914062 76.003906 29.339844 75.210938 C 28.835938 74.503906 28.847656 73.289062 29.375 72.609375 C 30.054688 71.742188 30.949219 71.304688 32.03125 71.5625 C 33.113281 71.820312 34.167969 72.378906 34.285156 73.570312 C 34.417969 74.988281 35.089844 75.796875 36.28125 76.445312 C 37.136719 76.914062 37.640625 77.785156 38.074219 78.914062 C 37.65625 78.808594 37.441406 78.785156 37.253906 78.699219 C 35.90625 78.066406 34.542969 78.085938 33.117188 78.464844 C 32.042969 78.75 30.886719 79.152344 29.839844 79.003906 C 26.902344 78.585938 25.09375 75.574219 25.703125 72.460938 L 25.855469 71.78125 C 25.207031 71.605469 24.582031 71.429688 23.75 71.203125 C 24.289062 70.605469 24.679688 70.167969 25.011719 69.796875 L 23.199219 67.332031 C 23.261719 67.25 23.324219 67.164062 23.386719 67.082031 L 24.875 67.550781 C 26.621094 68.253906 28.453125 68.253906 30.257812 68.097656 C 33.382812 67.828125 35.847656 68.683594 37.277344 71.660156 L 37.414062 71.832031 C 38.1875 71.335938 38.832031 70.707031 39.597656 70.296875 C 41.386719 69.347656 43.535156 70.164062 44.285156 71.992188 C 44.605469 72.765625 44.617188 73.582031 44 74.175781 C 43.628906 74.53125 43.027344 74.65625 42.511719 74.839844 L 42.214844 74.71875 C 42.117188 74.441406 42.179688 74.289062 42.265625 74.148438 C 42.8125 73.257812 42.757812 72.6875 42.078125 72.179688 C 41.253906 71.5625 40.417969 71.628906 39.765625 72.367188 C 38.765625 73.488281 38.917969 74.9375 40.117188 75.84375 C 41.984375 77.253906 44.183594 76.644531 45.539062 75.453125 C 46.929688 74.234375 47.003906 71.507812 45.710938 69.96875 C 45.117188 69.261719 44.253906 68.78125 43.484375 68.230469 C 43.175781 68.003906 42.796875 67.867188 42.292969 67.613281 C 43.785156 66.847656 45.097656 66.921875 46.332031 67.496094 L 47.667969 65.53125 C 47.996094 65.078125 48.382812 65.050781 48.71875 65.511719 L 50.078125 67.503906 C 51.285156 66.914062 52.601562 66.859375 54.132812 67.609375 C 53.558594 67.894531 53.152344 68.082031 52.761719 68.289062 C 50.796875 69.304688 49.636719 70.792969 49.832031 73.128906 C 49.96875 74.804688 50.910156 75.90625 52.746094 76.460938 C 54.246094 76.910156 55.941406 76.441406 56.847656 75.320312 C 57.480469 74.535156 57.417969 73.335938 56.691406 72.4375 C 56.117188 71.722656 55.417969 71.570312 54.621094 71.984375 C 53.753906 72.4375 53.550781 73.152344 54.039062 74.003906 L 54.371094 74.585938 C 53.253906 75.203125 52.054688 74.441406 51.9375 73.09375 C 51.777344 71.308594 53.871094 69.574219 55.75 69.925781 C 57.039062 70.167969 57.992188 70.933594 58.824219 72.003906 L 59.253906 71.441406 C 60.5 68.886719 62.664062 67.90625 65.359375 68.074219 C 67.898438 68.230469 70.375 68.164062 72.753906 67.152344 L 72.914062 67.140625 C 72.578125 68.15625 71.964844 69.007812 71.332031 69.875 C 71.664062 70.242188 72.074219 70.699219 72.636719 71.324219 C 71.839844 71.546875 71.246094 71.707031 70.671875 71.867188 L 70.769531 74.011719 C 70.742188 76.425781 69.019531 78.578125 66.65625 79.007812 C 65.957031 79.136719 65.171875 78.96875 64.460938 78.796875 C 63.054688 78.457031 61.6875 77.921875 60.214844 78.328125 C 59.667969 78.480469 59.140625 78.695312 58.410156 78.949219 C 58.527344 78.570312 58.527344 78.292969 58.671875 78.140625 C 59.390625 77.375 60.066406 76.519531 60.921875 75.933594 C 61.558594 75.5 61.875 75.097656 61.9375 74.335938 C 62.089844 72.480469 63.628906 71.277344 65.394531 71.554688 C 66.8125 71.773438 67.773438 73.304688 67.347656 74.671875 C 67 75.773438 65.925781 76.320312 64.785156 75.957031 L 63.921875 75.582031 C 64.367188 76.898438 65.59375 77.46875 66.886719 76.96875 M 50.632812 84.46875 C 51.914062 82.394531 53.925781 81.351562 56.816406 82.210938 L 56.816406 90.734375 C 54.796875 88.6875 52.726562 86.589844 50.632812 84.46875 M 39.730469 90.964844 L 39.730469 82.191406 C 42.507812 81.410156 44.617188 82.253906 46.054688 84.683594 C 44.019531 86.707031 41.917969 88.792969 39.730469 90.960938 M 54.878906 101.386719 L 48.828125 105.480469 C 48.558594 105.65625 47.96875 105.632812 47.683594 105.449219 L 41.804688 101.472656 C 40.035156 100.238281 39.140625 97.65625 39.707031 95.496094 C 39.765625 95.28125 39.933594 95.078125 40.097656 94.917969 C 42.78125 92.210938 45.464844 89.515625 48.265625 86.707031 C 51.09375 89.539062 53.832031 92.28125 56.5625 95.023438 L 56.796875 95.289062 C 57.441406 97.351562 56.53125 100.210938 54.878906 101.390625 M 35.765625 95.214844 C 34.011719 97.003906 32.019531 97.519531 29.417969 96.636719 C 27.828125 96.097656 26.164062 95.832031 24.488281 95.742188 C 23.480469 95.6875 23.1875 95.453125 23.089844 94.597656 C 22.84375 92.5 22.519531 90.40625 21.949219 88.375 C 21.398438 86.425781 21.953125 84.890625 23.175781 83.46875 C 24.113281 82.378906 25.144531 81.914062 26.632812 81.964844 C 29.953125 82.085938 33.285156 82.003906 36.796875 82.003906 L 36.796875 83.234375 C 36.796875 86.359375 36.753906 89.480469 36.820312 92.605469 C 36.84375 93.679688 36.53125 94.4375 35.765625 95.214844 M 21.949219 57.234375 C 22.425781 55.238281 22.753906 53.203125 23.101562 51.175781 C 23.199219 50.601562 23.449219 50.378906 24.011719 50.277344 L 30.882812 49.011719 C 33.058594 48.613281 35.632812 49.839844 36.660156 51.757812 L 36.78125 52.355469 C 36.789062 56.160156 36.785156 59.972656 36.785156 63.972656 L 33.191406 63.972656 C 30.757812 63.972656 28.316406 63.929688 25.882812 63.996094 C 24.964844 64.019531 24.382812 63.660156 23.734375 63.082031 C 21.933594 61.472656 21.386719 59.578125 21.949219 57.242188 M 38.035156 66.988281 C 38.835938 66.960938 39.550781 67.640625 39.554688 68.4375 C 39.558594 69.191406 38.882812 69.863281 38.109375 69.871094 C 37.339844 69.878906 36.664062 69.226562 36.644531 68.457031 C 36.621094 67.660156 37.226562 67.015625 38.035156 66.988281 M 46.019531 61.414062 C 43.957031 63.953125 42.652344 64.476562 39.742188 63.820312 L 39.742188 55.066406 C 41.851562 57.203125 43.929688 59.304688 46.019531 61.414062 M 56.804688 55.023438 L 56.804688 63.785156 C 54.003906 64.582031 51.914062 63.679688 50.488281 61.273438 C 52.539062 59.246094 54.628906 57.179688 56.804688 55.023438 M 39.675781 48.292969 C 39.863281 46.457031 40.667969 45.007812 42.460938 44.089844 C 44.152344 43.226562 45.703125 42.125 47.140625 40.882812 C 47.882812 40.246094 48.289062 40.046875 48.945312 40.511719 L 54.800781 44.527344 C 56.492188 45.71875 57.460938 48.652344 56.835938 50.539062 L 56.707031 50.78125 C 53.859375 53.644531 51.101562 56.410156 48.253906 59.269531 L 42.550781 53.511719 C 42.066406 53.023438 41.640625 52.453125 41.085938 52.070312 C 39.699219 51.121094 39.523438 49.800781 39.675781 48.292969 M 58.273438 66.980469 C 59.0625 66.960938 59.746094 67.585938 59.777344 68.351562 C 59.804688 69.148438 59.125 69.851562 58.3125 69.863281 C 57.550781 69.875 56.867188 69.207031 56.859375 68.445312 C 56.851562 67.683594 57.507812 67 58.273438 66.980469 M 61.488281 50.101562 C 62.742188 49.101562 64.105469 48.683594 65.707031 49.011719 L 72.566406 50.328125 C 72.894531 50.398438 73.320312 50.816406 73.386719 51.140625 L 74.753906 58.304688 C 75.105469 60.257812 73.683594 63.011719 71.902344 63.878906 L 71.664062 63.957031 C 67.660156 63.960938 63.785156 63.960938 59.746094 63.960938 L 59.746094 55.078125 C 59.746094 54.699219 59.808594 54.308594 59.734375 53.945312 C 59.386719 52.226562 60.242188 51.09375 61.488281 50.101562 M 79.222656 47.769531 L 54.308594 33.386719 C 50.578125 31.230469 45.96875 31.230469 42.234375 33.386719 L 17.324219 47.769531 C 13.589844 49.925781 11.285156 53.914062 11.285156 58.230469 L 11.285156 86.992188 C 11.285156 91.308594 13.589844 95.296875 17.324219 97.453125 L 42.234375 111.835938 C 45.964844 113.988281 50.574219 113.988281 54.308594 111.835938 L 79.21875 97.453125 C 82.949219 95.296875 85.253906 91.308594 85.253906 86.992188 L 85.253906 58.230469 C 85.253906 53.914062 82.949219 49.925781 79.21875 47.769531 " clip-rule="nonzero"/></clipPath><clipPath id="3464141772"><path d="M 563.015625 48 L 603.640625 48 L 603.640625 96.59375 L 563.015625 96.59375 Z M 563.015625 48 " clip-rule="nonzero"/></clipPath><clipPath id="a581afefd6"><path d="M 574.140625 48.710938 L 574.140625 74.128906 L 584.09375 74.128906 C 591.007812 74.128906 599.167969 71.425781 599.167969 61.453125 C 599.167969 53.417969 593.847656 48.710938 585.066406 48.710938 Z M 574.140625 74.820312 L 574.140625 92.617188 C 574.140625 94.210938 575.722656 95.804688 581.050781 96.152344 L 581.050781 96.496094 L 563.148438 96.496094 L 563.148438 96.152344 C 568.464844 95.804688 570.058594 94.136719 570.058594 92.480469 L 570.058594 52.035156 C 570.058594 50.378906 568.472656 48.710938 563.148438 48.363281 L 563.148438 48.019531 L 585.132812 48.019531 C 596.605469 48.019531 603.445312 53.074219 603.445312 61.316406 C 603.445312 70.667969 594.667969 74.820312 583.675781 74.820312 Z M 574.140625 74.820312 " clip-rule="nonzero"/></clipPath><clipPath id="a83e26fea1"><path d="M 606.128906 59.007812 L 633.765625 59.007812 L 633.765625 96.59375 L 606.128906 96.59375 Z M 606.128906 59.007812 " clip-rule="nonzero"/></clipPath><clipPath id="064bcb3713"><path d="M 629.09375 59.167969 C 631.789062 59.167969 633.445312 60.140625 633.65625 60.414062 L 632.964844 69.421875 L 632.617188 69.421875 C 632.0625 65.058594 629.300781 62.492188 626.050781 62.492188 C 621.140625 62.492188 617.199219 68.308594 617.199219 76.207031 L 617.199219 92.480469 C 617.199219 94.148438 618.785156 95.804688 624.109375 96.152344 L 624.109375 96.496094 L 606.207031 96.496094 L 606.207031 96.152344 C 611.535156 95.804688 613.117188 94.136719 613.117188 92.480469 L 613.117188 63.875 C 613.117188 62.207031 611.535156 60.550781 606.207031 60.203125 L 606.207031 59.859375 L 616.851562 59.859375 L 617.199219 60.277344 L 617.199219 71.425781 C 617.199219 66.023438 621.972656 59.167969 629.082031 59.167969 " clip-rule="nonzero"/></clipPath><clipPath id="3a13669fc1"><path d="M 636.527344 59.007812 L 677.984375 59.007812 L 677.984375 97.144531 L 636.527344 97.144531 Z M 636.527344 59.007812 " clip-rule="nonzero"/></clipPath><clipPath id="57b72d5702"><path d="M 673.472656 78.417969 C 673.472656 68.792969 668.152344 59.859375 657.371094 59.859375 C 646.660156 59.859375 641.269531 68.792969 641.269531 78.417969 C 641.269531 88.046875 646.660156 96.289062 657.371094 96.289062 C 668.152344 96.289062 673.472656 88.046875 673.472656 78.417969 M 636.769531 78.492188 C 636.769531 67.890625 645.277344 59.167969 657.371094 59.167969 C 669.464844 59.167969 677.972656 67.890625 677.972656 78.492188 C 677.972656 89.09375 669.464844 97.125 657.371094 97.125 C 645.277344 97.125 636.761719 89.085938 636.761719 78.492188 " clip-rule="nonzero"/></clipPath><clipPath id="15c6a86dd0"><path d="M 675.21875 47.121094 L 691.800781 47.121094 L 691.800781 109 L 675.21875 109 Z M 675.21875 47.121094 " clip-rule="nonzero"/></clipPath><clipPath id="cafde704b8"><path d="M 687.644531 47.253906 C 689.992188 47.253906 691.585938 48.636719 691.585938 50.851562 C 691.585938 53.066406 690.140625 54.59375 687.644531 54.59375 C 685.148438 54.59375 683.699219 53.074219 683.699219 50.851562 C 683.699219 48.628906 685.359375 47.253906 687.644531 47.253906 M 675.265625 106.332031 L 675.265625 97.882812 C 676.578125 105.085938 678.582031 108.199219 682.042969 108.199219 C 685.429688 108.199219 686.953125 105.222656 686.953125 98.574219 L 686.953125 63.875 C 686.953125 62.207031 685.359375 60.550781 680.039062 60.203125 L 680.039062 59.859375 L 690.6875 59.859375 L 691.03125 60.277344 L 691.03125 98.4375 C 691.03125 104.675781 687.234375 108.890625 681.769531 108.890625 C 679.074219 108.890625 676.449219 107.855469 675.277344 106.324219 " clip-rule="nonzero"/></clipPath><clipPath id="398634debc"><path d="M 696.222656 59.007812 L 732.980469 59.007812 L 732.980469 96.867188 L 696.222656 96.867188 Z M 696.222656 59.007812 " clip-rule="nonzero"/></clipPath><clipPath id="71b20f0db5"><path d="M 726.214844 72.464844 C 726.214844 67.125 722.480469 59.859375 714.328125 59.859375 C 707.207031 59.859375 702.925781 66.097656 701.40625 72.464844 Z M 716.257812 94.695312 C 725.25 94.695312 730.292969 88.527344 732.296875 82.507812 L 732.78125 82.71875 C 730.703125 89.292969 725.25 96.78125 714.253906 96.78125 C 702.226562 96.78125 696.421875 87.84375 696.421875 78.292969 C 696.421875 66.933594 703.820312 59.175781 714.601562 59.175781 C 724.347656 59.175781 730.355469 65.476562 730.355469 72.261719 L 730.355469 73.164062 L 701.257812 73.164062 C 700.914062 74.683594 700.777344 76.214844 700.777344 77.664062 C 700.777344 86.25 705.6875 94.703125 716.257812 94.703125 " clip-rule="nonzero"/></clipPath><clipPath id="4e41884926"><path d="M 735.46875 59.007812 L 771.949219 59.007812 L 771.949219 96.867188 L 735.46875 96.867188 Z M 735.46875 59.007812 " clip-rule="nonzero"/></clipPath><clipPath id="6c86216885"><path d="M 769.691406 64.503906 L 769.691406 72.953125 C 768.308594 65.332031 761.878906 59.929688 754.347656 59.929688 C 744.949219 59.929688 739.902344 68.867188 739.902344 77.589844 C 739.902344 86.179688 744.8125 94.628906 755.382812 94.628906 C 764.375 94.628906 769.417969 88.464844 771.421875 82.445312 L 771.90625 82.652344 C 769.828125 89.230469 764.375 96.714844 753.378906 96.714844 C 741.351562 96.714844 735.546875 87.78125 735.546875 78.226562 C 735.546875 67.972656 742.25 59.183594 754.417969 59.183594 C 762.160156 59.183594 768.242188 62.507812 769.691406 64.523438 " clip-rule="nonzero"/></clipPath><clipPath id="f9885cd877"><path d="M 773.054688 48 L 794.335938 48 L 794.335938 97.421875 L 773.054688 97.421875 Z M 773.054688 48 " clip-rule="nonzero"/></clipPath><clipPath id="7684a66397"><path d="M 783.925781 89.847656 C 783.925781 92.828125 785.65625 94.695312 788.144531 94.695312 C 791.25 94.695312 793.261719 91.789062 793.953125 90.332031 L 794.164062 90.75 C 793.335938 93.171875 790.21875 97.191406 785.109375 97.191406 C 781.859375 97.191406 779.855469 94.558594 779.855469 90.257812 L 779.855469 68.101562 C 779.855469 62.628906 777.925781 60.550781 773.289062 60.550781 L 773.5625 59.859375 L 774.390625 59.859375 C 778.261719 59.859375 783.445312 56.050781 783.445312 48.019531 L 783.925781 48.019531 L 783.925781 59.859375 L 793.261719 59.859375 L 792.640625 60.550781 L 783.9375 60.550781 Z M 783.925781 89.847656 " clip-rule="nonzero"/></clipPath></defs><g clip-path="url(#3b293885ac)"><g clip-path="url(#14eff8908b)"><path fill="#860102" d="M 103.472656 43.460938 L 237.066406 43.460938 L 237.066406 101.328125 L 103.472656 101.328125 Z M 103.472656 43.460938 " fill-opacity="1" fill-rule="nonzero"/></g></g><g clip-path="url(#a6a89f8d76)"><g clip-path="url(#32f89e9472)"><path fill="#860102" d="M 103.472656 43.460938 L 237.066406 43.460938 L 237.066406 101.328125 L 103.472656 101.328125 Z M 103.472656 43.460938 " fill-opacity="1" fill-rule="nonzero"/></g></g><g clip-path="url(#975892f984)"><g clip-path="url(#a05eeadd8a)"><path fill="#860102" d="M 103.472656 43.460938 L 237.066406 43.460938 L 237.066406 101.328125 L 103.472656 101.328125 Z M 103.472656 43.460938 " fill-opacity="1" fill-rule="nonzero"/></g></g><g clip-path="url(#d65a84114f)"><g clip-path="url(#14cba34c8f)"><path fill="#860102" d="M 253.542969 43.460938 L 540.339844 43.460938 L 540.339844 118.226562 L 253.542969 118.226562 Z M 253.542969 43.460938 " fill-opacity="1" fill-rule="nonzero"/></g></g><g clip-path="url(#43c168f0b8)"><g clip-path="url(#be0c6d6ce3)"><path fill="#860102" d="M 253.542969 43.460938 L 540.339844 43.460938 L 540.339844 118.226562 L 253.542969 118.226562 Z M 253.542969 43.460938 " fill-opacity="1" fill-rule="nonzero"/></g></g><g clip-path="url(#44fc31cc8e)"><g clip-path="url(#0e63ff6195)"><path fill="#860102" d="M 253.542969 43.460938 L 540.339844 43.460938 L 540.339844 118.226562 L 253.542969 118.226562 Z M 253.542969 43.460938 " fill-opacity="1" fill-rule="nonzero"/></g></g><g clip-path="url(#95a465b2e4)"><g clip-path="url(#c18967fa39)"><path fill="#860102" d="M 253.542969 43.460938 L 540.339844 43.460938 L 540.339844 118.226562 L 253.542969 118.226562 Z M 253.542969 43.460938 " fill-opacity="1" fill-rule="nonzero"/></g></g><g clip-path="url(#c8911bcd89)"><g clip-path="url(#81986b7f85)"><path fill="#860102" d="M 253.542969 43.460938 L 540.339844 43.460938 L 540.339844 118.226562 L 253.542969 118.226562 Z M 253.542969 43.460938 " fill-opacity="1" fill-rule="nonzero"/></g></g><g clip-path="url(#9f7e804f55)"><g clip-path="url(#16eac7f295)"><path fill="#860102" d="M 253.542969 43.460938 L 540.339844 43.460938 L 540.339844 118.226562 L 253.542969 118.226562 Z M 253.542969 43.460938 " fill-opacity="1" fill-rule="nonzero"/></g></g><g clip-path="url(#46f424aa3d)"><g clip-path="url(#d866a3d2cc)"><path fill="#860102" d="M 253.542969 43.460938 L 540.339844 43.460938 L 540.339844 118.226562 L 253.542969 118.226562 Z M 253.542969 43.460938 " fill-opacity="1" fill-rule="nonzero"/></g></g><g clip-path="url(#89da19a52b)"><g clip-path="url(#7ab73e7ab3)"><path fill="#860102" d="M 11.285156 31.773438 L 85.257812 31.773438 L 85.257812 113.546875 L 11.285156 113.546875 Z M 11.285156 31.773438 " fill-opacity="1" fill-rule="nonzero"/></g></g><g clip-path="url(#3464141772)"><g clip-path="url(#a581afefd6)"><path fill="#860102" d="M 558.59375 42.699219 L 798.757812 42.699219 L 798.757812 113.449219 L 558.59375 113.449219 Z M 558.59375 42.699219 " fill-opacity="1" fill-rule="nonzero"/></g></g><g clip-path="url(#a83e26fea1)"><g clip-path="url(#064bcb3713)"><path fill="#860102" d="M 558.59375 42.699219 L 798.757812 42.699219 L 798.757812 113.449219 L 558.59375 113.449219 Z M 558.59375 42.699219 " fill-opacity="1" fill-rule="nonzero"/></g></g><g clip-path="url(#3a13669fc1)"><g clip-path="url(#57b72d5702)"><path fill="#860102" d="M 558.59375 42.699219 L 798.757812 42.699219 L 798.757812 113.449219 L 558.59375 113.449219 Z M 558.59375 42.699219 " fill-opacity="1" fill-rule="nonzero"/></g></g><g clip-path="url(#15c6a86dd0)"><g clip-path="url(#cafde704b8)"><path fill="#860102" d="M 558.59375 42.699219 L 798.757812 42.699219 L 798.757812 113.449219 L 558.59375 113.449219 Z M 558.59375 42.699219 " fill-opacity="1" fill-rule="nonzero"/></g></g><g clip-path="url(#398634debc)"><g clip-path="url(#71b20f0db5)"><path fill="#860102" d="M 558.59375 42.699219 L 798.757812 42.699219 L 798.757812 113.449219 L 558.59375 113.449219 Z M 558.59375 42.699219 " fill-opacity="1" fill-rule="nonzero"/></g></g><g clip-path="url(#4e41884926)"><g clip-path="url(#6c86216885)"><path fill="#860102" d="M 558.59375 42.699219 L 798.757812 42.699219 L 798.757812 113.449219 L 558.59375 113.449219 Z M 558.59375 42.699219 " fill-opacity="1" fill-rule="nonzero"/></g></g><g clip-path="url(#f9885cd877)"><g clip-path="url(#7684a66397)"><path fill="#860102" d="M 558.59375 42.699219 L 798.757812 42.699219 L 798.757812 113.449219 L 558.59375 113.449219 Z M 558.59375 42.699219 " fill-opacity="1" fill-rule="nonzero"/></g></g></svg>